# xmcd
#
# Track frame offsets:
# 150
# 19523
# 48884
# 65483
# 85749
# 100626
# 114764
# 131633
# 147421
# 161743
# 170352
#
# Disc length: 2891 seconds
#
#
# Revision: 0
# Processed by: cddbd v1.4PL0 Copyright (c) Steve Scherf et al.
# Submitted via: FreeRIP 2.00 
#
DISCID=840b490b
DTITLE=Los Sonys - El Bueno, el Malo y el Feo
DYEAR=1900
DGENRE=Soundtrack
TTITLE0=El Bueno, El Malo y el Feo
TTITLE1=The bonthy Killer
TTITLE2=Por un puñado de dolares
TTITLE3=Apache
TTITLE4=Bonanza
TTITLE5=La Marca de la Horca
TTITLE6=El Dolar Marcado
TTITLE7=Por unos dólares más
TTITLE8=Arizona Colt
TTITLE9=El Gran Chaparral
TTITLE10=Medley
EXTD=
EXTT0=
EXTT1=
EXTT2=
EXTT3=
EXTT4=
EXTT5=
EXTT6=
EXTT7=
EXTT8=
EXTT9=
EXTT10=
PLAYORDER=
